<svg xmlns="http://www.w3.org/2000/svg" viewBox="0 0 32 32">
  <defs>
    <linearGradient id="g" x1="0" y1="0" x2="1" y2="1">
      <stop offset="0%" stop-color="#2563eb"/>
      <stop offset="100%" stop-color="#4f46e5"/>
    </linearGradient>
  </defs>
  <rect width="32" height="32" rx="7" fill="url(#g)"/>
  <!-- Keyboard card -->
  <rect x="4.1" y="8.1" width="23.8" height="15.8" rx="1.75" fill="rgba(255,255,255,0.10)" stroke="rgba(255,255,255,0.88)" stroke-width="0.75"/>
  <!-- Row 1 — 5 keys -->
  <rect x="6.4"  y="11.4" width="3.1" height="2.4" rx="0.55" fill="white" opacity="0.93"/>
  <rect x="10.4" y="11.4" width="3.1" height="2.4" rx="0.55" fill="white" opacity="0.93"/>
  <rect x="14.4" y="11.4" width="3.1" height="2.4" rx="0.55" fill="white" opacity="0.93"/>
  <rect x="18.4" y="11.4" width="3.1" height="2.4" rx="0.55" fill="white" opacity="0.93"/>
  <rect x="22.4" y="11.4" width="3.1" height="2.4" rx="0.55" fill="white" opacity="0.93"/>
  <!-- Row 2 — 4 keys -->
  <rect x="8.4"  y="14.9" width="3.1" height="2.4" rx="0.55" fill="white" opacity="0.65"/>
  <rect x="12.4" y="14.9" width="3.1" height="2.4" rx="0.55" fill="white" opacity="0.65"/>
  <rect x="16.4" y="14.9" width="3.1" height="2.4" rx="0.55" fill="white" opacity="0.65"/>
  <rect x="20.4" y="14.9" width="3.1" height="2.4" rx="0.55" fill="white" opacity="0.65"/>
  <!-- Spacebar -->
  <rect x="9.9"  y="18.4" width="12.2" height="2.2" rx="0.55" fill="white" opacity="0.38"/>
</svg>
