<svg width="32" height="32" viewBox="0 0 32 32" fill="none" xmlns="http://www.w3.org/2000/svg">
  <defs>
    <linearGradient id="bg" x1="0" y1="0" x2="32" y2="32" gradientUnits="userSpaceOnUse">
      <stop offset="0%" stop-color="#3b82f6"/>
      <stop offset="100%" stop-color="#1d4ed8"/>
    </linearGradient>
  </defs>
  <rect width="32" height="32" rx="7" fill="url(#bg)"/>
  <!-- Keyboard body -->
  <rect x="3" y="9" width="26" height="14" rx="2.5" stroke="white" stroke-width="1.5" fill="white" fill-opacity="0.1"/>
  <!-- Row 1: 5 keys -->
  <rect x="5"   y="11.5" width="3.5" height="2.5" rx="0.8" fill="white" fill-opacity="0.92"/>
  <rect x="9.5" y="11.5" width="3.5" height="2.5" rx="0.8" fill="white" fill-opacity="0.92"/>
  <rect x="14"  y="11.5" width="3.5" height="2.5" rx="0.8" fill="white" fill-opacity="0.92"/>
  <rect x="18.5" y="11.5" width="3.5" height="2.5" rx="0.8" fill="white" fill-opacity="0.92"/>
  <rect x="23"  y="11.5" width="3.5" height="2.5" rx="0.8" fill="white" fill-opacity="0.92"/>
  <!-- Row 2: 4 keys -->
  <rect x="6.5" y="15.5" width="3.5" height="2.5" rx="0.8" fill="white" fill-opacity="0.62"/>
  <rect x="11.5" y="15.5" width="3.5" height="2.5" rx="0.8" fill="white" fill-opacity="0.62"/>
  <rect x="16.5" y="15.5" width="3.5" height="2.5" rx="0.8" fill="white" fill-opacity="0.62"/>
  <rect x="21.5" y="15.5" width="3.5" height="2.5" rx="0.8" fill="white" fill-opacity="0.62"/>
  <!-- Spacebar -->
  <rect x="10" y="19.5" width="12" height="2.5" rx="0.8" fill="white" fill-opacity="0.40"/>
</svg>
